# xmcd
#
# Track frame offsets:
#	183
#	12333
#	27108
#	40383
#	56883
#	67533
#	80958
#	96633
#	106608
#	122058
#	136458
#	146695
#	158058
#	173883
#	185358
#	194883
#	208083
#	221133
#	239658
#	249708
#	270858
#	286083
#
# Disc length: 3929 seconds
#
# Revision: 1
# Processed by: cddbd v1.4PL0 Copyright (c) Steve Scherf et al.
# Submitted via: audiograbber 1.80
#
DISCID=4f0f5716
DTITLE=Varios - Clasicos de Colombia
DYEAR=1900
DGENRE=
TTITLE0=Yo me llamo cumbia
TTITLE1=Palo negro
TTITLE2=Al sur
TTITLE3=La guanena
TTITLE4=Soy Boyacense
TTITLE5=Ay mi llanura
TTITLE6=Mi buenaventura
TTITLE7=Besame morenita
TTITLE8=El paraiso
TTITLE9=La ferias de manizales
TTITLE10=Oropel
TTITLE11=La gata golosa
TTITLE12=noches de cartagena
TTITLE13=Caprichito
TTITLE14=El pescador
TTITLE15=Josefa Matia
TTITLE16=Antioquenita
TTITLE17=Mercedes
TTITLE18=La ruana
TTITLE19=Romance de san andres
TTITLE20=039
TTITLE21=Sandona
EXTD=Ethnic Colombian music
EXTT0=
EXTT1=
EXTT2=
EXTT3=
EXTT4=
EXTT5=
EXTT6=
EXTT7=
EXTT8=
EXTT9=
EXTT10=
EXTT11=
EXTT12=
EXTT13=
EXTT14=
EXTT15=
EXTT16=
EXTT17=
EXTT18=
EXTT19=
EXTT20=
EXTT21=
PLAYORDER=
